<?xml version="1.0" encoding="UTF-8" standalone="no"?>
<!DOCTYPE svg  PUBLIC '-//W3C//DTD SVG 1.1//EN'  'http://www.w3.org/Graphics/SVG/1.1/DTD/svg11.dtd'>
<svg id="Layer_1" xmlns="http://www.w3.org/2000/svg" xml:space="preserve" height="320px" viewBox="0 0 320 320" width="320px" version="1.1" y="0px" x="0px" xmlns:xlink="http://www.w3.org/1999/xlink" enable-background="new 0 0 320 320">
	<path stroke-linejoin="round" d="m261 64.429l-140.44 50.97m0 0l24.6-82.379m-24.6 82.379l26.02 53.008m-103.9-17.22l77.88-35.789m51.55 56.4l94.32-99.078m-110.51 93.098l-6.446-132.26m-13.65 148.86l-92.388-23.074m113.81-129.05l93.271 106.03m-3.11 13.63l-70.053 29.625m84.01-46.32l15.77-54.926m-16.74-27.107l-99.604-26.805m-121.24 122.61l101.21-116.48" stroke="#696A6D" stroke-linecap="round" stroke-width=".7" fill="none"/>
	<path d="m161.21 21.441c0 6.799-5.517 12.337-12.33 12.337-6.816 0-12.345-5.538-12.345-12.337 0-6.822 5.528-12.337 12.345-12.337 6.81 0 12.33 5.515 12.33 12.337" fill="#E86D1F"/>
	<path d="m31.677 143.86c-6.807 0-12.34 5.513-12.34 12.324 0 6.809 5.533 12.338 12.34 12.338 6.811 0 12.333-5.529 12.333-12.338 0-6.8-5.522-12.32-12.333-12.32" fill="#B32317"/>
	<path d="m258.7 132.92c-6.812 0-12.351 5.538-12.351 12.348 0 6.815 5.538 12.335 12.351 12.335 6.816 0 12.34-5.521 12.34-12.335 0-6.8-5.52-12.34-12.34-12.34" fill="#7A953B"/>
	<path d="m157.03 165.56c-12.052 0-21.832 9.763-21.832 21.83 0 12.065 9.78 21.831 21.832 21.831 12.056 0 21.823-9.766 21.823-21.831 0-12.06-9.77-21.83-21.82-21.83" fill="#0094E4"/>
	<path d="m281.28 35.195c-12.067 0-21.832 9.768-21.832 21.819 0 12.049 9.765 21.821 21.832 21.821 12.038-0.005 21.811-9.78 21.811-21.827s-9.77-21.824-21.81-21.813" fill="#FDB924"/>
	<path d="m120.63 103.04c-6.834 0-12.34 5.525-12.34 12.328 0 6.822 5.506 12.336 12.34 12.336 6.807 0 12.325-5.514 12.325-12.336-0.01-6.81-5.53-12.33-12.33-12.33" fill="#7D4199"/>
		<path d="m20.251 235.32c0-4.855 3.923-8.783 8.78-8.783h16.831c8.986 0 16.413 2.89 22.208 8.684 5.885 5.676 8.772 13.005 8.772 21.996v12.185c0 8.989-2.887 16.312-8.772 22.002-5.795 5.675-13.222 8.563-22.208 8.563h-25.611v-64.64zm14.77 53.39h10.841c4.848 0 8.771-1.75 11.774-5.37 3.001-3.623 4.439-8.262 4.439-13.94v-12.292c0-5.684-1.438-10.222-4.439-13.836-3.003-3.612-6.927-5.367-11.774-5.367h-10.841v50.81z" fill="#78A22F"/>
		<path d="m125.5 288.71c4.857 0 8.782 3.924 8.782 8.782v2.473h-51.021v-7.641l32.633-54.42h-23.85c-4.859 0-8.783-3.929-8.783-8.771v-2.598h50.084v7.334l-32.747 54.841h24.91z" fill="#0094E4"/>
		<path d="m138.83 272.19c0-8.159 2.268-14.77 6.812-19.936 4.54-5.27 10.845-7.855 18.794-7.855 8.065 0 14.371 2.586 18.91 7.754 4.649 5.157 6.916 11.878 6.916 20.037v1.032c0 8.163-2.267 14.874-6.813 20.035-4.542 5.16-10.849 7.741-18.892 7.741-8.07 0-14.375-2.581-18.915-7.741-4.544-5.161-6.812-11.872-6.812-20.035v-1.03zm14.67 1.03c0 9.919 3.297 16.522 11.056 16.522 7.521 0 11.035-6.604 11.035-16.522v-1.032c0-9.612-3.406-16.422-11.156-16.422-7.541 0-10.935 6.81-10.935 16.422v1.03z" fill="#0094E4"/>
		<path d="m213.4 253.18c3.719-5.476 9.091-8.78 15.689-8.78 11.062 0 17.563 6.816 17.563 22.102v33.465h-5.975c-4.854 0-8.796-3.91-8.796-8.784v-24.568c0-7.857-2.793-10.746-8.146-10.746-4.442 0-7.86 1.756-9.923 4.654v39.444h-14.76v-45.73c0-4.854 3.925-8.776 8.784-8.776h4.949l0.62 7.74z" fill="#0094E4"/>
		<path d="m262.15 293.57c-4.538-5.058-6.804-11.468-6.804-19.314v-2.065c0-8.159 2.159-14.77 6.605-20.037 4.438-5.267 10.531-7.853 18.271-7.754 14.779-0.006 22.844 9.61 22.844 24.884v7.541l-32.536 0.005-0.217 0.317c0.521 7.428 4.542 12.599 12.501 12.599 3.404 0 6.094-0.307 8.554-1.043 4.245-1.229 8.686 0.839 10.45 4.862l0.514 1.131c-4.436 3.622-12.292 6.3-21.065 6.304-8.15-0.01-14.44-2.49-19.11-7.44zm8.38-26.64l0.095 0.2 17.975-0.003v-1.151c0-6.28-2.48-10.209-8.377-10.209-5.88 0-8.97 4.44-9.69 11.16z" fill="#0094E4"/>
</svg>
