<svg xmlns="http://www.w3.org/2000/svg" width="100" height="100" viewBox="0 0 100 100" fill-rule="evenodd"><path d="M53.5 80V55.5a9 9 0 0 0-9-9H20V12.82c0-4.458.464-6.074 1.336-7.704s2.15-2.91 3.78-3.78S28.362 0 32.82 0h54.36c4.458 0 6.074.464 7.704 1.336s2.91 2.15 3.78 3.78S100 8.362 100 12.82v54.36c0 4.458-.464 6.074-1.336 7.704s-2.15 2.91-3.78 3.78S91.638 80 87.18 80H53.5z" fill="#B3DFEF"></path><path d="M72.876 13.747c0 .967.77 1.748 1.716 1.748h7.6l-24.2 24.387a1.77 1.77 0 0 0 0 2.472 1.69 1.69 0 0 0 2.426 0l24.2-24.387v7.75c0 .967.77 1.748 1.716 1.748s1.716-.78 1.716-1.748v-11.97a1.79 1.79 0 0 0-.132-.667 1.73 1.73 0 0 0-.928-.945 1.67 1.67 0 0 0-.655-.134H74.592c-.947-.002-1.716.78-1.716 1.747z" fill="#278DB2" fill-rule="nonzero"></path><g fill="#3CB6E2"><path d="M8.012 50h33.976c2.786 0 3.796.3 4.815.835s1.818 1.344 2.363 2.362.835 2.03.835 4.815v33.976c0 2.786-.3 3.796-.835 4.815s-1.344 1.818-2.363 2.362-2.03.835-4.815.835H8.012c-2.786 0-3.796-.3-4.815-.835S1.38 97.82.835 96.803 0 94.774 0 91.988V58.012c0-2.786.3-3.796.835-4.815s1.344-1.818 2.363-2.362S5.226 50 8.012 50zm0 4c-1.936 0-2.43.095-2.928.362a1.69 1.69 0 0 0-.722.722c-.267.5-.362.992-.362 2.928v33.976c0 1.936.095 2.43.362 2.928.172.322.4.55.722.722.5.267.992.362 2.928.362h33.976c1.936 0 2.43-.095 2.928-.362a1.69 1.69 0 0 0 .722-.722c.267-.5.362-.992.362-2.928V58.012c0-1.936-.095-2.43-.362-2.928-.172-.322-.4-.55-.722-.722-.5-.267-.992-.362-2.928-.362H8.012zM18.5 74a5.5 5.5 0 1 1 0-11 5.5 5.5 0 1 1 0 11z"></path><path d="M45.88 98.347c.876.87.588-12.514 1.464-13.385s.876-2.284 0-3.155L36.128 70.653c-.876-.87-2.296-.87-3.172 0L6.212 97.05c-.876.87 1.196.426 2.072 1.297s2.296.87 3.172 0H45.88z"></path></g></svg>